<?xml version="1.0" standalone="no"?><!DOCTYPE svg PUBLIC "-//W3C//DTD SVG 1.1//EN" "http://www.w3.org/Graphics/SVG/1.1/DTD/svg11.dtd"><svg t="1700719243593" class="icon" viewBox="0 0 1024 1024" version="1.1" xmlns="http://www.w3.org/2000/svg" p-id="2557" xmlns:xlink="http://www.w3.org/1999/xlink" width="128" height="128"><path d="M512 0C229.229714 0 0 229.229714 0 512s229.229714 512 512 512 512-229.229714 512-512S794.770286 0 512 0z m270.321371 744.382171a21.942857 21.942857 0 0 1-21.942857 21.942858H268.990171a21.942857 21.942857 0 0 1-21.942857-21.942858V355.766857h535.274057zM819.2 286.932114H204.8a14.628571 14.628571 0 0 1 0-29.257143h614.4a14.628571 14.628571 0 0 1 0 29.257143z" fill="#3D3D3D" p-id="2558"></path><path d="M247.047314 744.382171a21.942857 21.942857 0 0 0 21.942857 21.942858h491.388343a21.942857 21.942857 0 0 0 21.942857-21.942858V355.766857H247.047314z m401.393372-181.072457l-34.816 34.808686a14.628571 14.628571 0 0 1-20.692115-20.6848l34.816-34.816a14.628571 14.628571 0 0 1 20.692115 20.692114z m-66.084572-59.048228L679.497143 407.0912a14.628571 14.628571 0 0 1 20.692114 20.692114L603.040914 524.946286a14.628571 14.628571 0 0 1-20.6848-20.6848z" fill="#82D8D8" p-id="2559"></path><path d="M819.2 257.674971H204.8a14.628571 14.628571 0 0 0 0 29.257143h614.4a14.628571 14.628571 0 0 0 0-29.257143zM592.698514 529.232457a14.555429 14.555429 0 0 0 10.3424-4.286171l97.170286-97.162972A14.628571 14.628571 0 0 0 679.497143 407.0912L582.356114 504.261486a14.628571 14.628571 0 0 0 10.3424 24.970971zM627.748571 542.6176l-34.816 34.816a14.628571 14.628571 0 0 0 20.692115 20.6848l34.816-34.808686a14.628571 14.628571 0 0 0-20.692115-20.692114z" fill="#FFFFFF" p-id="2560"></path></svg>